<svg height="512" viewBox="0 0 256 256" width="512" xmlns="http://www.w3.org/2000/svg"><g id="Layer_90"><g><g><g><path d="m54.192 32.196h-36.018c-4.169 0-7.581 3.411-7.581 7.581v166.005c0 4.169 3.411 7.581 7.581 7.581h36.018c4.169 0 7.807-3.412 7.807-7.581v-166.005c0-4.17-3.637-7.581-7.807-7.581z" fill="#3a70bf"/></g></g><g><g><path d="m105.825 32.196h-36.019c-4.169 0-7.807 3.411-7.807 7.581v166.005c0 4.169 3.638 7.581 7.807 7.581h36.018c4.169 0 7.807-3.412 7.807-7.581v-166.005c.001-4.17-3.637-7.581-7.806-7.581z" fill="#3a70bf"/></g></g><g><g><path d="m157.457 32.196h-36.018c-4.169 0-7.807 3.411-7.807 7.581v166.005c0 4.169 3.638 7.581 7.807 7.581h36.018c4.169 0 7.581-3.412 7.581-7.581v-166.005c0-4.17-3.411-7.581-7.581-7.581z" fill="#3a70bf"/></g></g><g><g><path d="m245.292 198.21-28.827-163.483c-.724-4.106-4.676-6.873-8.782-6.149l-35.471 6.254c-4.106.724-7.096 4.715-6.372 8.821l28.827 163.483c.724 4.106 4.899 6.834 9.005 6.11l35.471-6.254c4.106-.724 6.873-4.676 6.149-8.782z" fill="#3a70bf"/></g></g><g><g><path d="m250.67 213.363h-245.34c-1.563 0-2.83 1.441-2.83 3.004v8.34c0 1.563 1.267 2.83 2.83 2.83h245.34c1.563 0 2.83-1.267 2.83-2.83v-8.34c0-1.562-1.267-3.004-2.83-3.004z" fill="#fcdd86"/></g></g><g><g><ellipse cx="36.183" cy="174.865" fill="#5290db" rx="12.682" ry="12.682" transform="matrix(.987 -.16 .16 .987 -27.543 8.054)"/></g></g><g><g><ellipse cx="87.816" cy="174.865" fill="#5290db" rx="12.682" ry="12.682" transform="matrix(.987 -.16 .16 .987 -26.876 16.324)"/></g></g><g><g><ellipse cx="139.448" cy="174.865" fill="#5290db" rx="12.682" ry="12.682" transform="matrix(.383 -.924 .924 .383 -75.471 236.78)"/></g></g><g><g><path d="m227.211 170.004c-1.216-6.898-7.794-11.503-14.691-10.287s-11.503 7.793-10.287 14.691c1.216 6.897 7.794 11.503 14.691 10.287s11.503-7.793 10.287-14.691z" fill="#5290db"/></g></g><g><g><path d="m48.966 54.063h-25.565c-2.07 0-3.749 1.678-3.749 3.749v66.529c0 2.07 1.678 3.749 3.749 3.749h25.565c2.07 0 3.749-1.679 3.749-3.749v-66.53c-.001-2.07-1.679-3.748-3.749-3.748z" fill="#dae6f1"/></g></g><g><g><path d="m100.598 54.063h-25.565c-2.07 0-3.749 1.678-3.749 3.749v66.529c0 2.07 1.678 3.749 3.749 3.749h25.565c2.07 0 3.749-1.679 3.749-3.749v-66.53c0-2.07-1.679-3.748-3.749-3.748z" fill="#dae6f1"/></g></g><g><g><path d="m152.231 54.063h-25.565c-2.07 0-3.749 1.678-3.749 3.749v66.529c0 2.07 1.678 3.749 3.749 3.749h25.565c2.07 0 3.749-1.679 3.749-3.749v-66.53c0-2.07-1.679-3.748-3.749-3.748z" fill="#dae6f1"/></g></g><g><g><path d="m222.229 119.578-11.553-65.518c-.36-2.039-2.304-3.4-4.343-3.041l-25.177 4.439c-2.039.359-3.401 2.304-3.041 4.343l11.553 65.518c.359 2.039 2.304 3.4 4.343 3.041l25.177-4.439c2.039-.359 3.4-2.304 3.041-4.343z" fill="#dae6f1"/></g></g><g><g><path d="m48.966 54.063h-25.565c-2.07 0-3.749 1.678-3.749 3.749v12.883h33.063v-12.884c-.001-2.07-1.679-3.748-3.749-3.748z" fill="#fc657e"/></g></g><g><g><path d="m100.598 54.063h-25.565c-2.07 0-3.749 1.678-3.749 3.749v12.883h33.063v-12.884c0-2.07-1.679-3.748-3.749-3.748z" fill="#fcdd86"/></g></g><g><g><path d="m152.231 54.063h-25.565c-2.07 0-3.749 1.678-3.749 3.749v12.883h33.063v-12.884c0-2.07-1.679-3.748-3.749-3.748z" fill="#9be5f9"/></g></g><g><g><path d="m210.676 54.06c-.36-2.039-2.304-3.4-4.343-3.041l-25.177 4.439c-2.039.359-3.401 2.304-3.041 4.343l2.237 12.688 32.561-5.742z" fill="#b2e26d"/></g></g><g><g><path d="m254.125 75.85c-4.5-.8-8-4.3-8.9-8.7 0-.2-.4-.2-.4 0-.9 4.4-4.4 7.9-8.9 8.7-.2 0-.2.3 0 .4 4.5.8 8 4.3 8.9 8.7 0 .2.4.2.4 0 .9-4.4 4.4-7.9 8.9-8.7.2-.1.2-.4 0-.4z" fill="#f5c84c"/></g></g><g><g><path d="m132.935 6.21c-3.157-.562-5.613-3.018-6.245-6.104 0-.141-.281-.141-.281 0-.631 3.087-3.087 5.543-6.245 6.104-.14 0-.14.21 0 .28 3.157.562 5.613 3.018 6.245 6.104 0 .141.281.141.281 0 .631-3.087 3.087-5.543 6.245-6.104.14-.07.14-.28 0-.28z" fill="#fc657e"/></g></g><g><g><path d="m101.025 244.1h-2.3v-2.3c0-1.7-1.4-3.2-3.2-3.2s-3.2 1.4-3.2 3.2v2.3h-2.3c-1.7 0-3.2 1.4-3.2 3.2s1.4 3.2 3.2 3.2h2.3v2.3c0 1.7 1.4 3.2 3.2 3.2s3.2-1.4 3.2-3.2v-2.3h2.3c1.7 0 3.2-1.4 3.2-3.2s-1.4-3.2-3.2-3.2z" fill="#70d6f9"/></g></g><g><g><path d="m64.125 238c-1.878 0-3.4 1.522-3.4 3.4s1.522 3.4 3.4 3.4 3.4-1.522 3.4-3.4-1.522-3.4-3.4-3.4z" fill="#87d147"/></g></g><g><g><path d="m155.125 15c-1.878 0-3.4 1.522-3.4 3.4s1.522 3.4 3.4 3.4 3.4-1.522 3.4-3.4-1.522-3.4-3.4-3.4z" fill="#f5c84c"/></g></g><g><g><path d="m43.883 79.064h-15.4c-1.381 0-2.5 1.119-2.5 2.5s1.119 2.5 2.5 2.5h15.399c1.381 0 2.5-1.119 2.5-2.5s-1.118-2.5-2.499-2.5z"/></g></g><g><g><path d="m43.883 87.896h-15.4c-1.381 0-2.5 1.119-2.5 2.5s1.119 2.5 2.5 2.5h15.399c1.381 0 2.5-1.119 2.5-2.5s-1.118-2.5-2.499-2.5z"/></g></g><g><g><path d="m43.883 96.728h-15.4c-1.381 0-2.5 1.119-2.5 2.5s1.119 2.5 2.5 2.5h15.399c1.381 0 2.5-1.119 2.5-2.5s-1.118-2.5-2.499-2.5z"/></g></g><g><g><path d="m43.883 105.56h-15.4c-1.381 0-2.5 1.119-2.5 2.5s1.119 2.5 2.5 2.5h15.399c1.381 0 2.5-1.119 2.5-2.5s-1.118-2.5-2.499-2.5z"/></g></g><g><g><path d="m43.883 114.392h-15.4c-1.381 0-2.5 1.119-2.5 2.5s1.119 2.5 2.5 2.5h15.399c1.381 0 2.5-1.119 2.5-2.5s-1.118-2.5-2.499-2.5z"/></g></g><g><g><path d="m95.516 79.064h-15.4c-1.381 0-2.5 1.119-2.5 2.5s1.119 2.5 2.5 2.5h15.399c1.381 0 2.5-1.119 2.5-2.5s-1.119-2.5-2.499-2.5z"/></g></g><g><g><path d="m95.516 87.896h-15.4c-1.381 0-2.5 1.119-2.5 2.5s1.119 2.5 2.5 2.5h15.399c1.381 0 2.5-1.119 2.5-2.5s-1.119-2.5-2.499-2.5z"/></g></g><g><g><path d="m95.516 96.728h-15.4c-1.381 0-2.5 1.119-2.5 2.5s1.119 2.5 2.5 2.5h15.399c1.381 0 2.5-1.119 2.5-2.5s-1.119-2.5-2.499-2.5z"/></g></g><g><g><path d="m95.516 105.56h-15.4c-1.381 0-2.5 1.119-2.5 2.5s1.119 2.5 2.5 2.5h15.399c1.381 0 2.5-1.119 2.5-2.5s-1.119-2.5-2.499-2.5z"/></g></g><g><g><path d="m95.516 114.392h-15.4c-1.381 0-2.5 1.119-2.5 2.5s1.119 2.5 2.5 2.5h15.399c1.381 0 2.5-1.119 2.5-2.5s-1.119-2.5-2.499-2.5z"/></g></g><g><g><path d="m147.147 79.064h-15.398c-1.381 0-2.5 1.119-2.5 2.5s1.119 2.5 2.5 2.5h15.398c1.381 0 2.5-1.119 2.5-2.5s-1.119-2.5-2.5-2.5z"/></g></g><g><g><path d="m147.147 87.896h-15.398c-1.381 0-2.5 1.119-2.5 2.5s1.119 2.5 2.5 2.5h15.398c1.381 0 2.5-1.119 2.5-2.5s-1.119-2.5-2.5-2.5z"/></g></g><g><g><path d="m147.147 96.728h-15.398c-1.381 0-2.5 1.119-2.5 2.5s1.119 2.5 2.5 2.5h15.398c1.381 0 2.5-1.119 2.5-2.5s-1.119-2.5-2.5-2.5z"/></g></g><g><g><path d="m147.147 105.56h-15.398c-1.381 0-2.5 1.119-2.5 2.5s1.119 2.5 2.5 2.5h15.398c1.381 0 2.5-1.119 2.5-2.5s-1.119-2.5-2.5-2.5z"/></g></g><g><g><path d="m147.147 114.392h-15.398c-1.381 0-2.5 1.119-2.5 2.5s1.119 2.5 2.5 2.5h15.398c1.381 0 2.5-1.119 2.5-2.5s-1.119-2.5-2.5-2.5z"/></g></g><g><g><path d="m208.564 78.551c-.24-1.359-1.532-2.267-2.896-2.027l-15.165 2.675c-1.359.239-2.268 1.536-2.027 2.896.214 1.213 1.269 2.065 2.459 2.065.145 0 .29-.012.438-.038l15.165-2.675c1.358-.239 2.267-1.536 2.026-2.896z"/></g></g><g><g><path d="m210.099 87.249c-.24-1.36-1.532-2.27-2.896-2.027l-15.165 2.674c-1.359.239-2.268 1.536-2.027 2.896.214 1.213 1.269 2.065 2.459 2.065.145 0 .29-.012.438-.038l15.165-2.674c1.358-.239 2.266-1.536 2.026-2.896z"/></g></g><g><g><path d="m211.632 95.946c-.24-1.36-1.532-2.271-2.896-2.027l-15.165 2.675c-1.359.239-2.268 1.536-2.027 2.896.214 1.213 1.269 2.065 2.459 2.065.145 0 .29-.012.438-.038l15.165-2.675c1.358-.238 2.266-1.535 2.026-2.896z"/></g></g><g><g><path d="m213.166 104.645c-.239-1.359-1.533-2.266-2.896-2.027l-15.165 2.674c-1.359.239-2.268 1.536-2.027 2.896.214 1.213 1.269 2.065 2.459 2.065.145 0 .29-.012.438-.038l15.165-2.674c1.358-.239 2.266-1.536 2.026-2.896z"/></g></g><g><g><path d="m214.699 113.342c-.239-1.359-1.533-2.268-2.896-2.027l-15.165 2.675c-1.359.239-2.268 1.536-2.027 2.896.214 1.213 1.269 2.065 2.459 2.065.145 0 .29-.012.438-.038l15.165-2.675c1.358-.239 2.266-1.536 2.026-2.896z"/></g></g><g><g><g><path d="m54.192 29.696h-36.018c-5.559 0-10.081 4.521-10.081 10.08v166.006c0 5.559 4.522 10.081 10.081 10.081h36.019c5.587 0 10.307-4.616 10.307-10.081v-166.006c-.001-5.463-4.721-10.08-10.308-10.08zm5.307 176.086c0 2.707-2.479 5.081-5.307 5.081h-36.018c-2.802 0-5.081-2.279-5.081-5.081v-166.006c0-2.801 2.279-5.08 5.081-5.08h36.019c2.827 0 5.307 2.374 5.307 5.08v166.006z"/></g></g></g><g><g><g><path d="m105.825 29.696h-36.018c-5.587 0-10.308 4.616-10.308 10.08v166.006c0 5.465 4.721 10.081 10.308 10.081h36.019c5.587 0 10.307-4.616 10.307-10.081v-166.006c-.001-5.463-4.721-10.08-10.308-10.08zm5.307 176.086c0 2.707-2.479 5.081-5.307 5.081h-36.018c-2.827 0-5.308-2.374-5.308-5.081v-166.006c0-2.706 2.48-5.08 5.308-5.08h36.019c2.827 0 5.307 2.374 5.307 5.08v166.006z"/></g></g></g><g><g><g><path d="m157.457 29.696h-36.019c-5.587 0-10.307 4.616-10.307 10.08v166.006c0 5.465 4.72 10.081 10.307 10.081h36.019c5.559 0 10.081-4.522 10.081-10.081v-166.006c0-5.558-4.522-10.08-10.081-10.08zm5.081 176.086c0 2.802-2.279 5.081-5.081 5.081h-36.019c-2.827 0-5.307-2.374-5.307-5.081v-166.006c0-2.706 2.479-5.08 5.307-5.08h36.019c2.802 0 5.081 2.279 5.081 5.08z"/></g></g></g><g><g><g><path d="m247.754 197.775-28.827-163.482c-.466-2.644-1.939-4.952-4.15-6.5-2.21-1.547-4.886-2.144-7.526-1.678 0 0 0 0-.001 0l-35.471 6.255c-5.502.97-9.349 6.335-8.4 11.718l28.827 163.482c.467 2.649 1.995 4.961 4.304 6.509 1.751 1.175 3.764 1.786 5.809 1.786.596 0 1.193-.052 1.788-.156l35.471-6.255c5.473-.965 9.141-6.203 8.176-11.679zm-9.046 6.755-35.471 6.255c-1.349.236-2.779-.077-3.944-.858-1.167-.782-1.936-1.928-2.164-3.225l-28.827-163.482c-.47-2.666 1.561-5.435 4.345-5.926l35.472-6.255c1.329-.233 2.675.067 3.79.85 1.117.781 1.86 1.943 2.095 3.272l28.827 163.482c.485 2.76-1.363 5.401-4.123 5.887z"/></g></g></g><g><g><g><path d="m250.67 210.863h-245.34c-2.89 0-5.33 2.521-5.33 5.504v8.34c0 2.939 2.391 5.33 5.33 5.33h245.34c2.939 0 5.33-2.391 5.33-5.33v-8.34c0-2.983-2.44-5.504-5.33-5.504zm.33 13.844c0 .182-.148.33-.33.33h-245.34c-.182 0-.33-.148-.33-.33v-8.34c0-.277.249-.504.33-.504h245.34c.081 0 .33.227.33.504z"/></g></g></g><g><g><g><path d="m36.183 159.684c-8.371 0-15.182 6.811-15.182 15.182s6.811 15.182 15.182 15.182 15.182-6.811 15.182-15.182-6.811-15.182-15.182-15.182zm0 25.363c-5.614 0-10.182-4.567-10.182-10.182s4.567-10.182 10.182-10.182 10.182 4.567 10.182 10.182-4.568 10.182-10.182 10.182z"/></g></g></g><g><g><g><path d="m87.815 159.684c-8.371 0-15.182 6.811-15.182 15.182s6.811 15.182 15.182 15.182 15.182-6.811 15.182-15.182-6.81-15.182-15.182-15.182zm0 25.363c-5.614 0-10.182-4.567-10.182-10.182s4.567-10.182 10.182-10.182 10.182 4.567 10.182 10.182-4.567 10.182-10.182 10.182z"/></g></g></g><g><g><g><path d="m139.448 159.684c-8.371 0-15.182 6.811-15.182 15.182s6.811 15.182 15.182 15.182 15.182-6.811 15.182-15.182-6.811-15.182-15.182-15.182zm0 25.363c-5.614 0-10.182-4.567-10.182-10.182s4.567-10.182 10.182-10.182 10.182 4.567 10.182 10.182-4.567 10.182-10.182 10.182z"/></g></g></g><g><g><g><path d="m229.673 169.57c-.704-3.994-2.921-7.475-6.243-9.8-3.321-2.326-7.35-3.217-11.344-2.515-3.994.704-7.475 2.921-9.8 6.242-2.326 3.322-3.22 7.351-2.516 11.345 1.298 7.356 7.719 12.547 14.944 12.547.871 0 1.756-.076 2.643-.232 3.994-.704 7.475-2.921 9.801-6.243 2.325-3.322 3.219-7.351 2.515-11.344zm-13.183 12.663c-5.541.973-10.821-2.731-11.796-8.259-.472-2.679.127-5.381 1.687-7.608 1.561-2.228 3.895-3.714 6.573-4.187.598-.105 1.196-.157 1.79-.157 2.07 0 4.087.632 5.817 1.844 2.229 1.56 3.715 3.894 4.188 6.571.975 5.531-2.73 10.822-8.259 11.796z"/></g></g></g><g><g><g><path d="m48.966 51.563h-25.566c-3.445 0-6.249 2.804-6.249 6.249v66.528c0 3.445 2.804 6.249 6.249 6.249h25.565c3.445 0 6.249-2.804 6.249-6.249v-66.528c.001-3.446-2.803-6.249-6.248-6.249zm1.249 72.777c0 .688-.561 1.249-1.249 1.249h-25.566c-.688 0-1.249-.561-1.249-1.249v-66.528c0-.688.561-1.249 1.249-1.249h25.565c.688 0 1.249.561 1.249 1.249v66.528z"/></g></g></g><g><g><g><path d="m100.598 51.563h-25.565c-3.445 0-6.249 2.804-6.249 6.249v66.528c0 3.445 2.804 6.249 6.249 6.249h25.564c3.445 0 6.249-2.804 6.249-6.249v-66.528c.001-3.446-2.803-6.249-6.248-6.249zm1.249 72.777c0 .688-.561 1.249-1.249 1.249h-25.565c-.688 0-1.249-.561-1.249-1.249v-66.528c0-.688.561-1.249 1.249-1.249h25.564c.688 0 1.249.561 1.249 1.249v66.528z"/></g></g></g><g><g><g><path d="m152.23 51.563h-25.564c-3.445 0-6.249 2.804-6.249 6.249v66.528c0 3.445 2.804 6.249 6.249 6.249h25.564c3.445 0 6.249-2.804 6.249-6.249v-66.528c0-3.446-2.803-6.249-6.249-6.249zm1.249 72.777c0 .688-.561 1.249-1.249 1.249h-25.564c-.688 0-1.249-.561-1.249-1.249v-66.528c0-.688.561-1.249 1.249-1.249h25.564c.688 0 1.249.561 1.249 1.249z"/></g></g></g><g><g><g><path d="m224.69 119.144-11.553-65.517c-.29-1.645-1.202-3.077-2.569-4.034-1.367-.958-3.025-1.326-4.669-1.035l-25.179 4.438c-3.392.6-5.665 3.848-5.067 7.24l11.553 65.517c.29 1.645 1.202 3.077 2.569 4.034 1.063.744 2.301 1.132 3.571 1.132.364 0 .731-.032 1.099-.097l25.176-4.439c1.645-.29 3.077-1.202 4.034-2.569s1.325-3.026 1.035-4.67zm-5.937 2.315-25.176 4.439c-.446.082-.775-.096-.934-.207-.158-.11-.436-.363-.514-.807l-11.553-65.517c-.119-.679.336-1.328 1.013-1.448l25.177-4.438h.002c.076-.014.15-.02.22-.02.332 0 .581.135.712.226.158.111.436.363.514.808l11.553 65.517c.119.678-.335 1.327-1.014 1.447z"/></g></g></g><g><g><path d="m51.563 68.194h-31c-1.381 0-2.5 1.119-2.5 2.5s1.119 2.5 2.5 2.5h31.001c1.381 0 2.5-1.119 2.5-2.5s-1.12-2.5-2.501-2.5z"/></g></g><g><g><path d="m103.375 68.194h-31.25c-1.381 0-2.5 1.119-2.5 2.5s1.119 2.5 2.5 2.5h31.25c1.381 0 2.5-1.119 2.5-2.5s-1.119-2.5-2.5-2.5z"/></g></g><g><g><path d="m154.958 68.194h-31.207c-1.381 0-2.5 1.119-2.5 2.5s1.119 2.5 2.5 2.5h31.207c1.381 0 2.5-1.119 2.5-2.5s-1.119-2.5-2.5-2.5z"/></g></g><g><g><path d="m214.563 66.456c-.24-1.359-1.532-2.268-2.896-2.027l-31.054 5.476c-1.359.239-2.268 1.536-2.027 2.896.214 1.213 1.269 2.065 2.459 2.065.145 0 .29-.012.438-.038l31.054-5.476c1.359-.239 2.267-1.536 2.026-2.896z"/></g></g></g></g></svg>